<svg xmlns="http://www.w3.org/2000/svg" id="prefigure-sol-1-2-wind-chill-figure" width="585" height="355" viewBox="0 0 585 355">
  <defs>
    <clipPath id="prefigure-sol-1-2-wind-chill-__clipPath-0">
      <rect x="60.0" y="25.0" width="500.0" height="300.0"/>
    </clipPath>
    <clipPath id="prefigure-sol-1-2-wind-chill-__clipPath-1">
      <rect x="60.0" y="25.0" width="500.0" height="300.0"/>
    </clipPath>
  </defs>
  <g id="prefigure-sol-1-2-wind-chill-grid-axes">
    <g id="prefigure-sol-1-2-wind-chill-grid" stroke="#ccc" stroke-width="1">
      <line x1="60.0" y1="325.0" x2="60.0" y2="25.0"/>
      <line x1="80.8" y1="325.0" x2="80.8" y2="25.0"/>
      <line x1="101.7" y1="325.0" x2="101.7" y2="25.0"/>
      <line x1="122.5" y1="325.0" x2="122.5" y2="25.0"/>
      <line x1="143.3" y1="325.0" x2="143.3" y2="25.0"/>
      <line x1="164.2" y1="325.0" x2="164.2" y2="25.0"/>
      <line x1="185.0" y1="325.0" x2="185.0" y2="25.0"/>
      <line x1="205.8" y1="325.0" x2="205.8" y2="25.0"/>
      <line x1="226.7" y1="325.0" x2="226.7" y2="25.0"/>
      <line x1="247.5" y1="325.0" x2="247.5" y2="25.0"/>
      <line x1="268.3" y1="325.0" x2="268.3" y2="25.0"/>
      <line x1="289.2" y1="325.0" x2="289.2" y2="25.0"/>
      <line x1="310.0" y1="325.0" x2="310.0" y2="25.0"/>
      <line x1="330.8" y1="325.0" x2="330.8" y2="25.0"/>
      <line x1="351.7" y1="325.0" x2="351.7" y2="25.0"/>
      <line x1="372.5" y1="325.0" x2="372.5" y2="25.0"/>
      <line x1="393.3" y1="325.0" x2="393.3" y2="25.0"/>
      <line x1="414.2" y1="325.0" x2="414.2" y2="25.0"/>
      <line x1="435.0" y1="325.0" x2="435.0" y2="25.0"/>
      <line x1="455.8" y1="325.0" x2="455.8" y2="25.0"/>
      <line x1="476.7" y1="325.0" x2="476.7" y2="25.0"/>
      <line x1="497.5" y1="325.0" x2="497.5" y2="25.0"/>
      <line x1="518.3" y1="325.0" x2="518.3" y2="25.0"/>
      <line x1="539.2" y1="325.0" x2="539.2" y2="25.0"/>
      <line x1="560.0" y1="325.0" x2="560.0" y2="25.0"/>
      <line x1="60.0" y1="325.0" x2="560.0" y2="325.0"/>
      <line x1="60.0" y1="306.2" x2="560.0" y2="306.2"/>
      <line x1="60.0" y1="287.5" x2="560.0" y2="287.5"/>
      <line x1="60.0" y1="268.8" x2="560.0" y2="268.8"/>
      <line x1="60.0" y1="250.0" x2="560.0" y2="250.0"/>
      <line x1="60.0" y1="231.2" x2="560.0" y2="231.2"/>
      <line x1="60.0" y1="212.5" x2="560.0" y2="212.5"/>
      <line x1="60.0" y1="193.8" x2="560.0" y2="193.8"/>
      <line x1="60.0" y1="175.0" x2="560.0" y2="175.0"/>
      <line x1="60.0" y1="156.2" x2="560.0" y2="156.2"/>
      <line x1="60.0" y1="137.5" x2="560.0" y2="137.5"/>
      <line x1="60.0" y1="118.8" x2="560.0" y2="118.8"/>
      <line x1="60.0" y1="100.0" x2="560.0" y2="100.0"/>
      <line x1="60.0" y1="81.2" x2="560.0" y2="81.2"/>
      <line x1="60.0" y1="62.5" x2="560.0" y2="62.5"/>
      <line x1="60.0" y1="43.8" x2="560.0" y2="43.8"/>
      <line x1="60.0" y1="25.0" x2="560.0" y2="25.0"/>
    </g>
    <g id="prefigure-sol-1-2-wind-chill-axes" stroke="black" stroke-width="2">
      <line id="prefigure-sol-1-2-wind-chill-__line-42" x1="60.0" y1="137.5" x2="560.0" y2="137.5" stroke="black" stroke-width="2"/>
      <g id="prefigure-sol-1-2-wind-chill-__g-0">
        <line id="prefigure-sol-1-2-wind-chill-__line-43" x1="101.7" y1="140.5" x2="101.7" y2="134.5"/>
        <line id="prefigure-sol-1-2-wind-chill-__line-44" x1="143.3" y1="140.5" x2="143.3" y2="134.5"/>
        <line id="prefigure-sol-1-2-wind-chill-__line-45" x1="185.0" y1="140.5" x2="185.0" y2="134.5"/>
        <line id="prefigure-sol-1-2-wind-chill-__line-46" x1="226.7" y1="140.5" x2="226.7" y2="134.5"/>
        <line id="prefigure-sol-1-2-wind-chill-__line-47" x1="268.3" y1="140.5" x2="268.3" y2="134.5"/>
        <line id="prefigure-sol-1-2-wind-chill-__line-48" x1="310.0" y1="140.5" x2="310.0" y2="134.5"/>
        <line id="prefigure-sol-1-2-wind-chill-__line-49" x1="351.7" y1="140.5" x2="351.7" y2="134.5"/>
        <line id="prefigure-sol-1-2-wind-chill-__line-50" x1="393.3" y1="140.5" x2="393.3" y2="134.5"/>
        <line id="prefigure-sol-1-2-wind-chill-__line-51" x1="435.0" y1="140.5" x2="435.0" y2="134.5"/>
        <line id="prefigure-sol-1-2-wind-chill-__line-52" x1="476.7" y1="140.5" x2="476.7" y2="134.5"/>
        <line id="prefigure-sol-1-2-wind-chill-__line-53" x1="518.3" y1="140.5" x2="518.3" y2="134.5"/>
        <line id="prefigure-sol-1-2-wind-chill-__line-54" x1="560.0" y1="140.5" x2="560.0" y2="134.5"/>
        <line id="prefigure-sol-1-2-wind-chill-__line-55" x1="101.7" y1="140.5" x2="101.7" y2="134.5"/>
        <line id="prefigure-sol-1-2-wind-chill-__line-56" x1="143.3" y1="140.5" x2="143.3" y2="134.5"/>
        <line id="prefigure-sol-1-2-wind-chill-__line-57" x1="185.0" y1="140.5" x2="185.0" y2="134.5"/>
        <line id="prefigure-sol-1-2-wind-chill-__line-58" x1="226.7" y1="140.5" x2="226.7" y2="134.5"/>
        <line id="prefigure-sol-1-2-wind-chill-__line-59" x1="268.3" y1="140.5" x2="268.3" y2="134.5"/>
        <line id="prefigure-sol-1-2-wind-chill-__line-60" x1="310.0" y1="140.5" x2="310.0" y2="134.5"/>
        <line id="prefigure-sol-1-2-wind-chill-__line-61" x1="351.7" y1="140.5" x2="351.7" y2="134.5"/>
        <line id="prefigure-sol-1-2-wind-chill-__line-62" x1="393.3" y1="140.5" x2="393.3" y2="134.5"/>
        <line id="prefigure-sol-1-2-wind-chill-__line-63" x1="435.0" y1="140.5" x2="435.0" y2="134.5"/>
        <line id="prefigure-sol-1-2-wind-chill-__line-64" x1="476.7" y1="140.5" x2="476.7" y2="134.5"/>
        <line id="prefigure-sol-1-2-wind-chill-__line-65" x1="518.3" y1="140.5" x2="518.3" y2="134.5"/>
        <line id="prefigure-sol-1-2-wind-chill-__line-66" x1="560.0" y1="140.5" x2="560.0" y2="134.5"/>
      </g>
      <line id="prefigure-sol-1-2-wind-chill-__line-67" x1="60.0" y1="325.0" x2="60.0" y2="25.0" stroke="black" stroke-width="2"/>
      <g id="prefigure-sol-1-2-wind-chill-__g-1">
        <line id="prefigure-sol-1-2-wind-chill-__line-68" x1="57.0" y1="325.0" x2="63.0" y2="325.0"/>
        <line id="prefigure-sol-1-2-wind-chill-__line-69" x1="57.0" y1="306.2" x2="63.0" y2="306.2"/>
        <line id="prefigure-sol-1-2-wind-chill-__line-70" x1="57.0" y1="287.5" x2="63.0" y2="287.5"/>
        <line id="prefigure-sol-1-2-wind-chill-__line-71" x1="57.0" y1="268.8" x2="63.0" y2="268.8"/>
        <line id="prefigure-sol-1-2-wind-chill-__line-72" x1="57.0" y1="250.0" x2="63.0" y2="250.0"/>
        <line id="prefigure-sol-1-2-wind-chill-__line-73" x1="57.0" y1="231.2" x2="63.0" y2="231.2"/>
        <line id="prefigure-sol-1-2-wind-chill-__line-74" x1="57.0" y1="212.5" x2="63.0" y2="212.5"/>
        <line id="prefigure-sol-1-2-wind-chill-__line-75" x1="57.0" y1="193.8" x2="63.0" y2="193.8"/>
        <line id="prefigure-sol-1-2-wind-chill-__line-76" x1="57.0" y1="175.0" x2="63.0" y2="175.0"/>
        <line id="prefigure-sol-1-2-wind-chill-__line-77" x1="57.0" y1="156.2" x2="63.0" y2="156.2"/>
        <line id="prefigure-sol-1-2-wind-chill-__line-78" x1="57.0" y1="137.5" x2="63.0" y2="137.5"/>
        <line id="prefigure-sol-1-2-wind-chill-__line-79" x1="57.0" y1="118.8" x2="63.0" y2="118.8"/>
        <line id="prefigure-sol-1-2-wind-chill-__line-80" x1="57.0" y1="100.0" x2="63.0" y2="100.0"/>
        <line id="prefigure-sol-1-2-wind-chill-__line-81" x1="57.0" y1="81.2" x2="63.0" y2="81.2"/>
        <line id="prefigure-sol-1-2-wind-chill-__line-82" x1="57.0" y1="62.5" x2="63.0" y2="62.5"/>
        <line id="prefigure-sol-1-2-wind-chill-__line-83" x1="57.0" y1="43.8" x2="63.0" y2="43.8"/>
        <line id="prefigure-sol-1-2-wind-chill-__line-84" x1="57.0" y1="325.0" x2="63.0" y2="325.0"/>
        <line id="prefigure-sol-1-2-wind-chill-__line-85" x1="57.0" y1="231.2" x2="63.0" y2="231.2"/>
        <line id="prefigure-sol-1-2-wind-chill-__line-86" x1="57.0" y1="137.5" x2="63.0" y2="137.5"/>
        <line id="prefigure-sol-1-2-wind-chill-__line-87" x1="57.0" y1="43.8" x2="63.0" y2="43.8"/>
      </g>
    </g>
    <g id="prefigure-sol-1-2-wind-chill-__label-0" transform="translate(565.0,137.5) translate(0.0,-6.6)">
      <g id="prefigure-sol-1-2-wind-chill-__g-2">
        <svg xmlns:xlink="http://www.w3.org/1999/xlink" style="vertical-align: -0.400px" width="11.672px" height="13.160px" role="img" focusable="false" viewBox="0 -705 645 727" x="0.0" y="0.0">
          <defs>
            <path id="prefigure-sol-1-2-wind-chill-MJX-2-TEX-I-1D446" d="M308 24Q367 24 416 76T466 197Q466 260 414 284Q308 311 278 321T236 341Q176 383 176 462Q176 523 208 573T273 648Q302 673 343 688T407 704H418H425Q521 704 564 640Q565 640 577 653T603 682T623 704Q624 704 627 704T632 705Q645 705 645 698T617 577T585 459T569 456Q549 456 549 465Q549 471 550 475Q550 478 551 494T553 520Q553 554 544 579T526 616T501 641Q465 662 419 662Q362 662 313 616T263 510Q263 480 278 458T319 427Q323 425 389 408T456 390Q490 379 522 342T554 242Q554 216 546 186Q541 164 528 137T492 78T426 18T332 -20Q320 -22 298 -22Q199 -22 144 33L134 44L106 13Q83 -14 78 -18T65 -22Q52 -22 52 -14Q52 -11 110 221Q112 227 130 227H143Q149 221 149 216Q149 214 148 207T144 186T142 153Q144 114 160 87T203 47T255 29T308 24Z"/>
          </defs>
          <g stroke="currentColor" fill="currentColor" stroke-width="0" transform="scale(1,-1)">
            <g data-mml-node="math">
              <g data-mml-node="mi" data-semantic-type="identifier" data-semantic-role="latinletter" data-semantic-font="italic" data-semantic-annotation="clearspeak:simple" data-semantic-id="0" data-semantic-speech="upper S">
                <use data-c="1D446" xlink:href="#prefigure-sol-1-2-wind-chill-MJX-2-TEX-I-1D446"/>
              </g>
            </g>
          </g>
        </svg>
      </g>
    </g>
    <g id="prefigure-sol-1-2-wind-chill-__label-1" transform="translate(60.0,20.0) translate(-6.9,-13.2)">
      <g id="prefigure-sol-1-2-wind-chill-__g-3">
        <svg xmlns:xlink="http://www.w3.org/1999/xlink" style="vertical-align: -0.400px" width="13.752px" height="13.160px" role="img" focusable="false" viewBox="0 -705 760 727" x="0.0" y="0.0">
          <defs>
            <path id="prefigure-sol-1-2-wind-chill-MJX-3-TEX-I-1D436" d="M50 252Q50 367 117 473T286 641T490 704Q580 704 633 653Q642 643 648 636T656 626L657 623Q660 623 684 649Q691 655 699 663T715 679T725 690L740 705H746Q760 705 760 698Q760 694 728 561Q692 422 692 421Q690 416 687 415T669 413H653Q647 419 647 422Q647 423 648 429T650 449T651 481Q651 552 619 605T510 659Q484 659 454 652T382 628T299 572T226 479Q194 422 175 346T156 222Q156 108 232 58Q280 24 350 24Q441 24 512 92T606 240Q610 253 612 255T628 257Q648 257 648 248Q648 243 647 239Q618 132 523 55T319 -22Q206 -22 128 53T50 252Z"/>
          </defs>
          <g stroke="currentColor" fill="currentColor" stroke-width="0" transform="scale(1,-1)">
            <g data-mml-node="math">
              <g data-mml-node="mi" data-semantic-type="identifier" data-semantic-role="latinletter" data-semantic-font="italic" data-semantic-annotation="clearspeak:simple" data-semantic-id="0" data-semantic-speech="upper C">
                <use data-c="1D436" xlink:href="#prefigure-sol-1-2-wind-chill-MJX-3-TEX-I-1D436"/>
              </g>
            </g>
          </g>
        </svg>
      </g>
    </g>
    <g id="prefigure-sol-1-2-wind-chill-__label-2" transform="translate(101.7,148.5) translate(-4.5,-0.0)">
      <g id="prefigure-sol-1-2-wind-chill-__g-4">
        <svg xmlns:xlink="http://www.w3.org/1999/xlink" style="vertical-align: -0.400px" width="9.048px" height="12.456px" role="img" focusable="false" viewBox="0 -666 500 688" x="0.0" y="0.0">
          <defs>
            <path id="prefigure-sol-1-2-wind-chill-MJX-4-TEX-N-35" d="M164 157Q164 133 148 117T109 101H102Q148 22 224 22Q294 22 326 82Q345 115 345 210Q345 313 318 349Q292 382 260 382H254Q176 382 136 314Q132 307 129 306T114 304Q97 304 95 310Q93 314 93 485V614Q93 664 98 664Q100 666 102 666Q103 666 123 658T178 642T253 634Q324 634 389 662Q397 666 402 666Q410 666 410 648V635Q328 538 205 538Q174 538 149 544L139 546V374Q158 388 169 396T205 412T256 420Q337 420 393 355T449 201Q449 109 385 44T229 -22Q148 -22 99 32T50 154Q50 178 61 192T84 210T107 214Q132 214 148 197T164 157Z"/>
          </defs>
          <g stroke="currentColor" fill="currentColor" stroke-width="0" transform="scale(1,-1)">
            <g data-mml-node="math">
              <g data-mml-node="mtext" data-semantic-type="text" data-semantic-role="integer" data-semantic-font="normal" data-semantic-annotation="clearspeak:unit" data-semantic-id="0" data-semantic-speech="5">
                <use data-c="35" xlink:href="#prefigure-sol-1-2-wind-chill-MJX-4-TEX-N-35"/>
              </g>
            </g>
          </g>
        </svg>
      </g>
    </g>
    <g id="prefigure-sol-1-2-wind-chill-__label-3" transform="translate(143.3,148.5) translate(-9.0,-0.0)">
      <g id="prefigure-sol-1-2-wind-chill-__g-5">
        <svg xmlns:xlink="http://www.w3.org/1999/xlink" style="vertical-align: -0.400px" width="18.096px" height="12.456px" role="img" focusable="false" viewBox="0 -666 1000 688" x="0.0" y="0.0">
          <defs>
            <path id="prefigure-sol-1-2-wind-chill-MJX-5-TEX-N-31" d="M213 578L200 573Q186 568 160 563T102 556H83V602H102Q149 604 189 617T245 641T273 663Q275 666 285 666Q294 666 302 660V361L303 61Q310 54 315 52T339 48T401 46H427V0H416Q395 3 257 3Q121 3 100 0H88V46H114Q136 46 152 46T177 47T193 50T201 52T207 57T213 61V578Z"/>
            <path id="prefigure-sol-1-2-wind-chill-MJX-5-TEX-N-30" d="M96 585Q152 666 249 666Q297 666 345 640T423 548Q460 465 460 320Q460 165 417 83Q397 41 362 16T301 -15T250 -22Q224 -22 198 -16T137 16T82 83Q39 165 39 320Q39 494 96 585ZM321 597Q291 629 250 629Q208 629 178 597Q153 571 145 525T137 333Q137 175 145 125T181 46Q209 16 250 16Q290 16 318 46Q347 76 354 130T362 333Q362 478 354 524T321 597Z"/>
          </defs>
          <g stroke="currentColor" fill="currentColor" stroke-width="0" transform="scale(1,-1)">
            <g data-mml-node="math">
              <g data-mml-node="mtext" data-semantic-type="text" data-semantic-role="unknown" data-semantic-font="normal" data-semantic-annotation="clearspeak:unit" data-semantic-id="0" data-semantic-speech="10">
                <use data-c="31" xlink:href="#prefigure-sol-1-2-wind-chill-MJX-5-TEX-N-31"/>
                <use data-c="30" xlink:href="#prefigure-sol-1-2-wind-chill-MJX-5-TEX-N-30" transform="translate(500,0)"/>
              </g>
            </g>
          </g>
        </svg>
      </g>
    </g>
    <g id="prefigure-sol-1-2-wind-chill-__label-4" transform="translate(185.0,148.5) translate(-9.0,-0.0)">
      <g id="prefigure-sol-1-2-wind-chill-__g-6">
        <svg xmlns:xlink="http://www.w3.org/1999/xlink" style="vertical-align: -0.400px" width="18.096px" height="12.456px" role="img" focusable="false" viewBox="0 -666 1000 688" x="0.0" y="0.0">
          <defs>
            <path id="prefigure-sol-1-2-wind-chill-MJX-6-TEX-N-31" d="M213 578L200 573Q186 568 160 563T102 556H83V602H102Q149 604 189 617T245 641T273 663Q275 666 285 666Q294 666 302 660V361L303 61Q310 54 315 52T339 48T401 46H427V0H416Q395 3 257 3Q121 3 100 0H88V46H114Q136 46 152 46T177 47T193 50T201 52T207 57T213 61V578Z"/>
            <path id="prefigure-sol-1-2-wind-chill-MJX-6-TEX-N-35" d="M164 157Q164 133 148 117T109 101H102Q148 22 224 22Q294 22 326 82Q345 115 345 210Q345 313 318 349Q292 382 260 382H254Q176 382 136 314Q132 307 129 306T114 304Q97 304 95 310Q93 314 93 485V614Q93 664 98 664Q100 666 102 666Q103 666 123 658T178 642T253 634Q324 634 389 662Q397 666 402 666Q410 666 410 648V635Q328 538 205 538Q174 538 149 544L139 546V374Q158 388 169 396T205 412T256 420Q337 420 393 355T449 201Q449 109 385 44T229 -22Q148 -22 99 32T50 154Q50 178 61 192T84 210T107 214Q132 214 148 197T164 157Z"/>
          </defs>
          <g stroke="currentColor" fill="currentColor" stroke-width="0" transform="scale(1,-1)">
            <g data-mml-node="math">
              <g data-mml-node="mtext" data-semantic-type="text" data-semantic-role="unknown" data-semantic-font="normal" data-semantic-annotation="clearspeak:unit" data-semantic-id="0" data-semantic-speech="15">
                <use data-c="31" xlink:href="#prefigure-sol-1-2-wind-chill-MJX-6-TEX-N-31"/>
                <use data-c="35" xlink:href="#prefigure-sol-1-2-wind-chill-MJX-6-TEX-N-35" transform="translate(500,0)"/>
              </g>
            </g>
          </g>
        </svg>
      </g>
    </g>
    <g id="prefigure-sol-1-2-wind-chill-__label-5" transform="translate(226.7,148.5) translate(-9.0,-0.0)">
      <g id="prefigure-sol-1-2-wind-chill-__g-7">
        <svg xmlns:xlink="http://www.w3.org/1999/xlink" style="vertical-align: -0.400px" width="18.096px" height="12.456px" role="img" focusable="false" viewBox="0 -666 1000 688" x="0.0" y="0.0">
          <defs>
            <path id="prefigure-sol-1-2-wind-chill-MJX-7-TEX-N-32" d="M109 429Q82 429 66 447T50 491Q50 562 103 614T235 666Q326 666 387 610T449 465Q449 422 429 383T381 315T301 241Q265 210 201 149L142 93L218 92Q375 92 385 97Q392 99 409 186V189H449V186Q448 183 436 95T421 3V0H50V19V31Q50 38 56 46T86 81Q115 113 136 137Q145 147 170 174T204 211T233 244T261 278T284 308T305 340T320 369T333 401T340 431T343 464Q343 527 309 573T212 619Q179 619 154 602T119 569T109 550Q109 549 114 549Q132 549 151 535T170 489Q170 464 154 447T109 429Z"/>
            <path id="prefigure-sol-1-2-wind-chill-MJX-7-TEX-N-30" d="M96 585Q152 666 249 666Q297 666 345 640T423 548Q460 465 460 320Q460 165 417 83Q397 41 362 16T301 -15T250 -22Q224 -22 198 -16T137 16T82 83Q39 165 39 320Q39 494 96 585ZM321 597Q291 629 250 629Q208 629 178 597Q153 571 145 525T137 333Q137 175 145 125T181 46Q209 16 250 16Q290 16 318 46Q347 76 354 130T362 333Q362 478 354 524T321 597Z"/>
          </defs>
          <g stroke="currentColor" fill="currentColor" stroke-width="0" transform="scale(1,-1)">
            <g data-mml-node="math">
              <g data-mml-node="mtext" data-semantic-type="text" data-semantic-role="unknown" data-semantic-font="normal" data-semantic-annotation="clearspeak:unit" data-semantic-id="0" data-semantic-speech="20">
                <use data-c="32" xlink:href="#prefigure-sol-1-2-wind-chill-MJX-7-TEX-N-32"/>
                <use data-c="30" xlink:href="#prefigure-sol-1-2-wind-chill-MJX-7-TEX-N-30" transform="translate(500,0)"/>
              </g>
            </g>
          </g>
        </svg>
      </g>
    </g>
    <g id="prefigure-sol-1-2-wind-chill-__label-6" transform="translate(268.3,148.5) translate(-9.0,-0.0)">
      <g id="prefigure-sol-1-2-wind-chill-__g-8">
        <svg xmlns:xlink="http://www.w3.org/1999/xlink" style="vertical-align: -0.400px" width="18.096px" height="12.456px" role="img" focusable="false" viewBox="0 -666 1000 688" x="0.0" y="0.0">
          <defs>
            <path id="prefigure-sol-1-2-wind-chill-MJX-8-TEX-N-32" d="M109 429Q82 429 66 447T50 491Q50 562 103 614T235 666Q326 666 387 610T449 465Q449 422 429 383T381 315T301 241Q265 210 201 149L142 93L218 92Q375 92 385 97Q392 99 409 186V189H449V186Q448 183 436 95T421 3V0H50V19V31Q50 38 56 46T86 81Q115 113 136 137Q145 147 170 174T204 211T233 244T261 278T284 308T305 340T320 369T333 401T340 431T343 464Q343 527 309 573T212 619Q179 619 154 602T119 569T109 550Q109 549 114 549Q132 549 151 535T170 489Q170 464 154 447T109 429Z"/>
            <path id="prefigure-sol-1-2-wind-chill-MJX-8-TEX-N-35" d="M164 157Q164 133 148 117T109 101H102Q148 22 224 22Q294 22 326 82Q345 115 345 210Q345 313 318 349Q292 382 260 382H254Q176 382 136 314Q132 307 129 306T114 304Q97 304 95 310Q93 314 93 485V614Q93 664 98 664Q100 666 102 666Q103 666 123 658T178 642T253 634Q324 634 389 662Q397 666 402 666Q410 666 410 648V635Q328 538 205 538Q174 538 149 544L139 546V374Q158 388 169 396T205 412T256 420Q337 420 393 355T449 201Q449 109 385 44T229 -22Q148 -22 99 32T50 154Q50 178 61 192T84 210T107 214Q132 214 148 197T164 157Z"/>
          </defs>
          <g stroke="currentColor" fill="currentColor" stroke-width="0" transform="scale(1,-1)">
            <g data-mml-node="math">
              <g data-mml-node="mtext" data-semantic-type="text" data-semantic-role="unknown" data-semantic-font="normal" data-semantic-annotation="clearspeak:unit" data-semantic-id="0" data-semantic-speech="25">
                <use data-c="32" xlink:href="#prefigure-sol-1-2-wind-chill-MJX-8-TEX-N-32"/>
                <use data-c="35" xlink:href="#prefigure-sol-1-2-wind-chill-MJX-8-TEX-N-35" transform="translate(500,0)"/>
              </g>
            </g>
          </g>
        </svg>
      </g>
    </g>
    <g id="prefigure-sol-1-2-wind-chill-__label-7" transform="translate(310.0,148.5) translate(-9.0,-0.0)">
      <g id="prefigure-sol-1-2-wind-chill-__g-9">
        <svg xmlns:xlink="http://www.w3.org/1999/xlink" style="vertical-align: -0.400px" width="18.096px" height="12.456px" role="img" focusable="false" viewBox="0 -666 1000 688" x="0.0" y="0.0">
          <defs>
            <path id="prefigure-sol-1-2-wind-chill-MJX-9-TEX-N-33" d="M127 463Q100 463 85 480T69 524Q69 579 117 622T233 665Q268 665 277 664Q351 652 390 611T430 522Q430 470 396 421T302 350L299 348Q299 347 308 345T337 336T375 315Q457 262 457 175Q457 96 395 37T238 -22Q158 -22 100 21T42 130Q42 158 60 175T105 193Q133 193 151 175T169 130Q169 119 166 110T159 94T148 82T136 74T126 70T118 67L114 66Q165 21 238 21Q293 21 321 74Q338 107 338 175V195Q338 290 274 322Q259 328 213 329L171 330L168 332Q166 335 166 348Q166 366 174 366Q202 366 232 371Q266 376 294 413T322 525V533Q322 590 287 612Q265 626 240 626Q208 626 181 615T143 592T132 580H135Q138 579 143 578T153 573T165 566T175 555T183 540T186 520Q186 498 172 481T127 463Z"/>
            <path id="prefigure-sol-1-2-wind-chill-MJX-9-TEX-N-30" d="M96 585Q152 666 249 666Q297 666 345 640T423 548Q460 465 460 320Q460 165 417 83Q397 41 362 16T301 -15T250 -22Q224 -22 198 -16T137 16T82 83Q39 165 39 320Q39 494 96 585ZM321 597Q291 629 250 629Q208 629 178 597Q153 571 145 525T137 333Q137 175 145 125T181 46Q209 16 250 16Q290 16 318 46Q347 76 354 130T362 333Q362 478 354 524T321 597Z"/>
          </defs>
          <g stroke="currentColor" fill="currentColor" stroke-width="0" transform="scale(1,-1)">
            <g data-mml-node="math">
              <g data-mml-node="mtext" data-semantic-type="text" data-semantic-role="unknown" data-semantic-font="normal" data-semantic-annotation="clearspeak:unit" data-semantic-id="0" data-semantic-speech="30">
                <use data-c="33" xlink:href="#prefigure-sol-1-2-wind-chill-MJX-9-TEX-N-33"/>
                <use data-c="30" xlink:href="#prefigure-sol-1-2-wind-chill-MJX-9-TEX-N-30" transform="translate(500,0)"/>
              </g>
            </g>
          </g>
        </svg>
      </g>
    </g>
    <g id="prefigure-sol-1-2-wind-chill-__label-8" transform="translate(351.7,148.5) translate(-9.0,-0.0)">
      <g id="prefigure-sol-1-2-wind-chill-__g-10">
        <svg xmlns:xlink="http://www.w3.org/1999/xlink" style="vertical-align: -0.400px" width="18.096px" height="12.456px" role="img" focusable="false" viewBox="0 -666 1000 688" x="0.0" y="0.0">
          <defs>
            <path id="prefigure-sol-1-2-wind-chill-MJX-10-TEX-N-33" d="M127 463Q100 463 85 480T69 524Q69 579 117 622T233 665Q268 665 277 664Q351 652 390 611T430 522Q430 470 396 421T302 350L299 348Q299 347 308 345T337 336T375 315Q457 262 457 175Q457 96 395 37T238 -22Q158 -22 100 21T42 130Q42 158 60 175T105 193Q133 193 151 175T169 130Q169 119 166 110T159 94T148 82T136 74T126 70T118 67L114 66Q165 21 238 21Q293 21 321 74Q338 107 338 175V195Q338 290 274 322Q259 328 213 329L171 330L168 332Q166 335 166 348Q166 366 174 366Q202 366 232 371Q266 376 294 413T322 525V533Q322 590 287 612Q265 626 240 626Q208 626 181 615T143 592T132 580H135Q138 579 143 578T153 573T165 566T175 555T183 540T186 520Q186 498 172 481T127 463Z"/>
            <path id="prefigure-sol-1-2-wind-chill-MJX-10-TEX-N-35" d="M164 157Q164 133 148 117T109 101H102Q148 22 224 22Q294 22 326 82Q345 115 345 210Q345 313 318 349Q292 382 260 382H254Q176 382 136 314Q132 307 129 306T114 304Q97 304 95 310Q93 314 93 485V614Q93 664 98 664Q100 666 102 666Q103 666 123 658T178 642T253 634Q324 634 389 662Q397 666 402 666Q410 666 410 648V635Q328 538 205 538Q174 538 149 544L139 546V374Q158 388 169 396T205 412T256 420Q337 420 393 355T449 201Q449 109 385 44T229 -22Q148 -22 99 32T50 154Q50 178 61 192T84 210T107 214Q132 214 148 197T164 157Z"/>
          </defs>
          <g stroke="currentColor" fill="currentColor" stroke-width="0" transform="scale(1,-1)">
            <g data-mml-node="math">
              <g data-mml-node="mtext" data-semantic-type="text" data-semantic-role="unknown" data-semantic-font="normal" data-semantic-annotation="clearspeak:unit" data-semantic-id="0" data-semantic-speech="35">
                <use data-c="33" xlink:href="#prefigure-sol-1-2-wind-chill-MJX-10-TEX-N-33"/>
                <use data-c="35" xlink:href="#prefigure-sol-1-2-wind-chill-MJX-10-TEX-N-35" transform="translate(500,0)"/>
              </g>
            </g>
          </g>
        </svg>
      </g>
    </g>
    <g id="prefigure-sol-1-2-wind-chill-__label-9" transform="translate(393.3,148.5) translate(-9.0,-0.0)">
      <g id="prefigure-sol-1-2-wind-chill-__g-11">
        <svg xmlns:xlink="http://www.w3.org/1999/xlink" style="vertical-align: -0.400px" width="18.096px" height="12.648px" role="img" focusable="false" viewBox="0 -677 1000 699" x="0.0" y="0.0">
          <defs>
            <path id="prefigure-sol-1-2-wind-chill-MJX-11-TEX-N-34" d="M462 0Q444 3 333 3Q217 3 199 0H190V46H221Q241 46 248 46T265 48T279 53T286 61Q287 63 287 115V165H28V211L179 442Q332 674 334 675Q336 677 355 677H373L379 671V211H471V165H379V114Q379 73 379 66T385 54Q393 47 442 46H471V0H462ZM293 211V545L74 212L183 211H293Z"/>
            <path id="prefigure-sol-1-2-wind-chill-MJX-11-TEX-N-30" d="M96 585Q152 666 249 666Q297 666 345 640T423 548Q460 465 460 320Q460 165 417 83Q397 41 362 16T301 -15T250 -22Q224 -22 198 -16T137 16T82 83Q39 165 39 320Q39 494 96 585ZM321 597Q291 629 250 629Q208 629 178 597Q153 571 145 525T137 333Q137 175 145 125T181 46Q209 16 250 16Q290 16 318 46Q347 76 354 130T362 333Q362 478 354 524T321 597Z"/>
          </defs>
          <g stroke="currentColor" fill="currentColor" stroke-width="0" transform="scale(1,-1)">
            <g data-mml-node="math">
              <g data-mml-node="mtext" data-semantic-type="text" data-semantic-role="unknown" data-semantic-font="normal" data-semantic-annotation="clearspeak:unit" data-semantic-id="0" data-semantic-speech="40">
                <use data-c="34" xlink:href="#prefigure-sol-1-2-wind-chill-MJX-11-TEX-N-34"/>
                <use data-c="30" xlink:href="#prefigure-sol-1-2-wind-chill-MJX-11-TEX-N-30" transform="translate(500,0)"/>
              </g>
            </g>
          </g>
        </svg>
      </g>
    </g>
    <g id="prefigure-sol-1-2-wind-chill-__label-10" transform="translate(435.0,148.5) translate(-9.0,-0.0)">
      <g id="prefigure-sol-1-2-wind-chill-__g-12">
        <svg xmlns:xlink="http://www.w3.org/1999/xlink" style="vertical-align: -0.400px" width="18.096px" height="12.648px" role="img" focusable="false" viewBox="0 -677 1000 699" x="0.0" y="0.0">
          <defs>
            <path id="prefigure-sol-1-2-wind-chill-MJX-12-TEX-N-34" d="M462 0Q444 3 333 3Q217 3 199 0H190V46H221Q241 46 248 46T265 48T279 53T286 61Q287 63 287 115V165H28V211L179 442Q332 674 334 675Q336 677 355 677H373L379 671V211H471V165H379V114Q379 73 379 66T385 54Q393 47 442 46H471V0H462ZM293 211V545L74 212L183 211H293Z"/>
            <path id="prefigure-sol-1-2-wind-chill-MJX-12-TEX-N-35" d="M164 157Q164 133 148 117T109 101H102Q148 22 224 22Q294 22 326 82Q345 115 345 210Q345 313 318 349Q292 382 260 382H254Q176 382 136 314Q132 307 129 306T114 304Q97 304 95 310Q93 314 93 485V614Q93 664 98 664Q100 666 102 666Q103 666 123 658T178 642T253 634Q324 634 389 662Q397 666 402 666Q410 666 410 648V635Q328 538 205 538Q174 538 149 544L139 546V374Q158 388 169 396T205 412T256 420Q337 420 393 355T449 201Q449 109 385 44T229 -22Q148 -22 99 32T50 154Q50 178 61 192T84 210T107 214Q132 214 148 197T164 157Z"/>
          </defs>
          <g stroke="currentColor" fill="currentColor" stroke-width="0" transform="scale(1,-1)">
            <g data-mml-node="math">
              <g data-mml-node="mtext" data-semantic-type="text" data-semantic-role="unknown" data-semantic-font="normal" data-semantic-annotation="clearspeak:unit" data-semantic-id="0" data-semantic-speech="45">
                <use data-c="34" xlink:href="#prefigure-sol-1-2-wind-chill-MJX-12-TEX-N-34"/>
                <use data-c="35" xlink:href="#prefigure-sol-1-2-wind-chill-MJX-12-TEX-N-35" transform="translate(500,0)"/>
              </g>
            </g>
          </g>
        </svg>
      </g>
    </g>
    <g id="prefigure-sol-1-2-wind-chill-__label-11" transform="translate(476.7,148.5) translate(-9.0,-0.0)">
      <g id="prefigure-sol-1-2-wind-chill-__g-13">
        <svg xmlns:xlink="http://www.w3.org/1999/xlink" style="vertical-align: -0.400px" width="18.096px" height="12.456px" role="img" focusable="false" viewBox="0 -666 1000 688" x="0.0" y="0.0">
          <defs>
            <path id="prefigure-sol-1-2-wind-chill-MJX-13-TEX-N-35" d="M164 157Q164 133 148 117T109 101H102Q148 22 224 22Q294 22 326 82Q345 115 345 210Q345 313 318 349Q292 382 260 382H254Q176 382 136 314Q132 307 129 306T114 304Q97 304 95 310Q93 314 93 485V614Q93 664 98 664Q100 666 102 666Q103 666 123 658T178 642T253 634Q324 634 389 662Q397 666 402 666Q410 666 410 648V635Q328 538 205 538Q174 538 149 544L139 546V374Q158 388 169 396T205 412T256 420Q337 420 393 355T449 201Q449 109 385 44T229 -22Q148 -22 99 32T50 154Q50 178 61 192T84 210T107 214Q132 214 148 197T164 157Z"/>
            <path id="prefigure-sol-1-2-wind-chill-MJX-13-TEX-N-30" d="M96 585Q152 666 249 666Q297 666 345 640T423 548Q460 465 460 320Q460 165 417 83Q397 41 362 16T301 -15T250 -22Q224 -22 198 -16T137 16T82 83Q39 165 39 320Q39 494 96 585ZM321 597Q291 629 250 629Q208 629 178 597Q153 571 145 525T137 333Q137 175 145 125T181 46Q209 16 250 16Q290 16 318 46Q347 76 354 130T362 333Q362 478 354 524T321 597Z"/>
          </defs>
          <g stroke="currentColor" fill="currentColor" stroke-width="0" transform="scale(1,-1)">
            <g data-mml-node="math">
              <g data-mml-node="mtext" data-semantic-type="text" data-semantic-role="unknown" data-semantic-font="normal" data-semantic-annotation="clearspeak:unit" data-semantic-id="0" data-semantic-speech="50">
                <use data-c="35" xlink:href="#prefigure-sol-1-2-wind-chill-MJX-13-TEX-N-35"/>
                <use data-c="30" xlink:href="#prefigure-sol-1-2-wind-chill-MJX-13-TEX-N-30" transform="translate(500,0)"/>
              </g>
            </g>
          </g>
        </svg>
      </g>
    </g>
    <g id="prefigure-sol-1-2-wind-chill-__label-12" transform="translate(518.3,148.5) translate(-9.0,-0.0)">
      <g id="prefigure-sol-1-2-wind-chill-__g-14">
        <svg xmlns:xlink="http://www.w3.org/1999/xlink" style="vertical-align: -0.400px" width="18.096px" height="12.456px" role="img" focusable="false" viewBox="0 -666 1000 688" x="0.0" y="0.0">
          <defs>
            <path id="prefigure-sol-1-2-wind-chill-MJX-14-TEX-N-35" d="M164 157Q164 133 148 117T109 101H102Q148 22 224 22Q294 22 326 82Q345 115 345 210Q345 313 318 349Q292 382 260 382H254Q176 382 136 314Q132 307 129 306T114 304Q97 304 95 310Q93 314 93 485V614Q93 664 98 664Q100 666 102 666Q103 666 123 658T178 642T253 634Q324 634 389 662Q397 666 402 666Q410 666 410 648V635Q328 538 205 538Q174 538 149 544L139 546V374Q158 388 169 396T205 412T256 420Q337 420 393 355T449 201Q449 109 385 44T229 -22Q148 -22 99 32T50 154Q50 178 61 192T84 210T107 214Q132 214 148 197T164 157Z"/>
          </defs>
          <g stroke="currentColor" fill="currentColor" stroke-width="0" transform="scale(1,-1)">
            <g data-mml-node="math">
              <g data-mml-node="mtext" data-semantic-type="text" data-semantic-role="unknown" data-semantic-font="normal" data-semantic-annotation="clearspeak:unit" data-semantic-id="0" data-semantic-speech="55">
                <use data-c="35" xlink:href="#prefigure-sol-1-2-wind-chill-MJX-14-TEX-N-35"/>
                <use data-c="35" xlink:href="#prefigure-sol-1-2-wind-chill-MJX-14-TEX-N-35" transform="translate(500,0)"/>
              </g>
            </g>
          </g>
        </svg>
      </g>
    </g>
    <g id="prefigure-sol-1-2-wind-chill-__label-13" transform="translate(560.0,148.5) translate(-9.0,-0.0)">
      <g id="prefigure-sol-1-2-wind-chill-__g-15">
        <svg xmlns:xlink="http://www.w3.org/1999/xlink" style="vertical-align: -0.400px" width="18.096px" height="12.456px" role="img" focusable="false" viewBox="0 -666 1000 688" x="0.0" y="0.0">
          <defs>
            <path id="prefigure-sol-1-2-wind-chill-MJX-15-TEX-N-36" d="M42 313Q42 476 123 571T303 666Q372 666 402 630T432 550Q432 525 418 510T379 495Q356 495 341 509T326 548Q326 592 373 601Q351 623 311 626Q240 626 194 566Q147 500 147 364L148 360Q153 366 156 373Q197 433 263 433H267Q313 433 348 414Q372 400 396 374T435 317Q456 268 456 210V192Q456 169 451 149Q440 90 387 34T253 -22Q225 -22 199 -14T143 16T92 75T56 172T42 313ZM257 397Q227 397 205 380T171 335T154 278T148 216Q148 133 160 97T198 39Q222 21 251 21Q302 21 329 59Q342 77 347 104T352 209Q352 289 347 316T329 361Q302 397 257 397Z"/>
            <path id="prefigure-sol-1-2-wind-chill-MJX-15-TEX-N-30" d="M96 585Q152 666 249 666Q297 666 345 640T423 548Q460 465 460 320Q460 165 417 83Q397 41 362 16T301 -15T250 -22Q224 -22 198 -16T137 16T82 83Q39 165 39 320Q39 494 96 585ZM321 597Q291 629 250 629Q208 629 178 597Q153 571 145 525T137 333Q137 175 145 125T181 46Q209 16 250 16Q290 16 318 46Q347 76 354 130T362 333Q362 478 354 524T321 597Z"/>
          </defs>
          <g stroke="currentColor" fill="currentColor" stroke-width="0" transform="scale(1,-1)">
            <g data-mml-node="math">
              <g data-mml-node="mtext" data-semantic-type="text" data-semantic-role="unknown" data-semantic-font="normal" data-semantic-annotation="clearspeak:unit" data-semantic-id="0" data-semantic-speech="60">
                <use data-c="36" xlink:href="#prefigure-sol-1-2-wind-chill-MJX-15-TEX-N-36"/>
                <use data-c="30" xlink:href="#prefigure-sol-1-2-wind-chill-MJX-15-TEX-N-30" transform="translate(500,0)"/>
              </g>
            </g>
          </g>
        </svg>
      </g>
    </g>
    <g id="prefigure-sol-1-2-wind-chill-__label-14" transform="translate(49.0,325.0) translate(-24.1,-6.2)">
      <g id="prefigure-sol-1-2-wind-chill-__g-16">
        <svg xmlns:xlink="http://www.w3.org/1999/xlink" style="vertical-align: -0.400px" width="24.128px" height="12.456px" role="img" focusable="false" viewBox="0 -666 1333 688" x="0.0" y="0.0">
          <defs>
            <path id="prefigure-sol-1-2-wind-chill-MJX-16-TEX-N-2D" d="M11 179V252H277V179H11Z"/>
            <path id="prefigure-sol-1-2-wind-chill-MJX-16-TEX-N-32" d="M109 429Q82 429 66 447T50 491Q50 562 103 614T235 666Q326 666 387 610T449 465Q449 422 429 383T381 315T301 241Q265 210 201 149L142 93L218 92Q375 92 385 97Q392 99 409 186V189H449V186Q448 183 436 95T421 3V0H50V19V31Q50 38 56 46T86 81Q115 113 136 137Q145 147 170 174T204 211T233 244T261 278T284 308T305 340T320 369T333 401T340 431T343 464Q343 527 309 573T212 619Q179 619 154 602T119 569T109 550Q109 549 114 549Q132 549 151 535T170 489Q170 464 154 447T109 429Z"/>
            <path id="prefigure-sol-1-2-wind-chill-MJX-16-TEX-N-30" d="M96 585Q152 666 249 666Q297 666 345 640T423 548Q460 465 460 320Q460 165 417 83Q397 41 362 16T301 -15T250 -22Q224 -22 198 -16T137 16T82 83Q39 165 39 320Q39 494 96 585ZM321 597Q291 629 250 629Q208 629 178 597Q153 571 145 525T137 333Q137 175 145 125T181 46Q209 16 250 16Q290 16 318 46Q347 76 354 130T362 333Q362 478 354 524T321 597Z"/>
          </defs>
          <g stroke="currentColor" fill="currentColor" stroke-width="0" transform="scale(1,-1)">
            <g data-mml-node="math">
              <g data-mml-node="mtext" data-semantic-type="text" data-semantic-role="unknown" data-semantic-font="normal" data-semantic-annotation="clearspeak:unit" data-semantic-id="0" data-semantic-speech="hyphen 20">
                <use data-c="2D" xlink:href="#prefigure-sol-1-2-wind-chill-MJX-16-TEX-N-2D"/>
                <use data-c="32" xlink:href="#prefigure-sol-1-2-wind-chill-MJX-16-TEX-N-32" transform="translate(333,0)"/>
                <use data-c="30" xlink:href="#prefigure-sol-1-2-wind-chill-MJX-16-TEX-N-30" transform="translate(833,0)"/>
              </g>
            </g>
          </g>
        </svg>
      </g>
    </g>
    <g id="prefigure-sol-1-2-wind-chill-__label-15" transform="translate(49.0,231.2) translate(-24.1,-6.2)">
      <g id="prefigure-sol-1-2-wind-chill-__g-17">
        <svg xmlns:xlink="http://www.w3.org/1999/xlink" style="vertical-align: -0.400px" width="24.128px" height="12.456px" role="img" focusable="false" viewBox="0 -666 1333 688" x="0.0" y="0.0">
          <defs>
            <path id="prefigure-sol-1-2-wind-chill-MJX-17-TEX-N-2D" d="M11 179V252H277V179H11Z"/>
            <path id="prefigure-sol-1-2-wind-chill-MJX-17-TEX-N-31" d="M213 578L200 573Q186 568 160 563T102 556H83V602H102Q149 604 189 617T245 641T273 663Q275 666 285 666Q294 666 302 660V361L303 61Q310 54 315 52T339 48T401 46H427V0H416Q395 3 257 3Q121 3 100 0H88V46H114Q136 46 152 46T177 47T193 50T201 52T207 57T213 61V578Z"/>
            <path id="prefigure-sol-1-2-wind-chill-MJX-17-TEX-N-30" d="M96 585Q152 666 249 666Q297 666 345 640T423 548Q460 465 460 320Q460 165 417 83Q397 41 362 16T301 -15T250 -22Q224 -22 198 -16T137 16T82 83Q39 165 39 320Q39 494 96 585ZM321 597Q291 629 250 629Q208 629 178 597Q153 571 145 525T137 333Q137 175 145 125T181 46Q209 16 250 16Q290 16 318 46Q347 76 354 130T362 333Q362 478 354 524T321 597Z"/>
          </defs>
          <g stroke="currentColor" fill="currentColor" stroke-width="0" transform="scale(1,-1)">
            <g data-mml-node="math">
              <g data-mml-node="mtext" data-semantic-type="text" data-semantic-role="unknown" data-semantic-font="normal" data-semantic-annotation="clearspeak:unit" data-semantic-id="0" data-semantic-speech="hyphen 10">
                <use data-c="2D" xlink:href="#prefigure-sol-1-2-wind-chill-MJX-17-TEX-N-2D"/>
                <use data-c="31" xlink:href="#prefigure-sol-1-2-wind-chill-MJX-17-TEX-N-31" transform="translate(333,0)"/>
                <use data-c="30" xlink:href="#prefigure-sol-1-2-wind-chill-MJX-17-TEX-N-30" transform="translate(833,0)"/>
              </g>
            </g>
          </g>
        </svg>
      </g>
    </g>
    <g id="prefigure-sol-1-2-wind-chill-__label-16" transform="translate(49.0,137.5) translate(-9.0,-6.2)">
      <g id="prefigure-sol-1-2-wind-chill-__g-18">
        <svg xmlns:xlink="http://www.w3.org/1999/xlink" style="vertical-align: -0.400px" width="9.048px" height="12.456px" role="img" focusable="false" viewBox="0 -666 500 688" x="0.0" y="0.0">
          <defs>
            <path id="prefigure-sol-1-2-wind-chill-MJX-18-TEX-N-30" d="M96 585Q152 666 249 666Q297 666 345 640T423 548Q460 465 460 320Q460 165 417 83Q397 41 362 16T301 -15T250 -22Q224 -22 198 -16T137 16T82 83Q39 165 39 320Q39 494 96 585ZM321 597Q291 629 250 629Q208 629 178 597Q153 571 145 525T137 333Q137 175 145 125T181 46Q209 16 250 16Q290 16 318 46Q347 76 354 130T362 333Q362 478 354 524T321 597Z"/>
          </defs>
          <g stroke="currentColor" fill="currentColor" stroke-width="0" transform="scale(1,-1)">
            <g data-mml-node="math">
              <g data-mml-node="mtext" data-semantic-type="text" data-semantic-role="integer" data-semantic-font="normal" data-semantic-annotation="clearspeak:unit" data-semantic-id="0" data-semantic-speech="0">
                <use data-c="30" xlink:href="#prefigure-sol-1-2-wind-chill-MJX-18-TEX-N-30"/>
              </g>
            </g>
          </g>
        </svg>
      </g>
    </g>
    <g id="prefigure-sol-1-2-wind-chill-__label-17" transform="translate(49.0,43.8) translate(-18.1,-6.2)">
      <g id="prefigure-sol-1-2-wind-chill-__g-19">
        <svg xmlns:xlink="http://www.w3.org/1999/xlink" style="vertical-align: -0.400px" width="18.096px" height="12.456px" role="img" focusable="false" viewBox="0 -666 1000 688" x="0.0" y="0.0">
          <defs>
            <path id="prefigure-sol-1-2-wind-chill-MJX-19-TEX-N-31" d="M213 578L200 573Q186 568 160 563T102 556H83V602H102Q149 604 189 617T245 641T273 663Q275 666 285 666Q294 666 302 660V361L303 61Q310 54 315 52T339 48T401 46H427V0H416Q395 3 257 3Q121 3 100 0H88V46H114Q136 46 152 46T177 47T193 50T201 52T207 57T213 61V578Z"/>
            <path id="prefigure-sol-1-2-wind-chill-MJX-19-TEX-N-30" d="M96 585Q152 666 249 666Q297 666 345 640T423 548Q460 465 460 320Q460 165 417 83Q397 41 362 16T301 -15T250 -22Q224 -22 198 -16T137 16T82 83Q39 165 39 320Q39 494 96 585ZM321 597Q291 629 250 629Q208 629 178 597Q153 571 145 525T137 333Q137 175 145 125T181 46Q209 16 250 16Q290 16 318 46Q347 76 354 130T362 333Q362 478 354 524T321 597Z"/>
          </defs>
          <g stroke="currentColor" fill="currentColor" stroke-width="0" transform="scale(1,-1)">
            <g data-mml-node="math">
              <g data-mml-node="mtext" data-semantic-type="text" data-semantic-role="unknown" data-semantic-font="normal" data-semantic-annotation="clearspeak:unit" data-semantic-id="0" data-semantic-speech="10">
                <use data-c="31" xlink:href="#prefigure-sol-1-2-wind-chill-MJX-19-TEX-N-31"/>
                <use data-c="30" xlink:href="#prefigure-sol-1-2-wind-chill-MJX-19-TEX-N-30" transform="translate(500,0)"/>
              </g>
            </g>
          </g>
        </svg>
      </g>
    </g>
  </g>
  <g id="prefigure-sol-1-2-wind-chill-__group-0">
    <path id="prefigure-sol-1-2-wind-chill-__path-0" d="M 60.0 43.8 L 101.7 128.1 L 143.3 175.0 L 185.0 203.1 L 226.7 221.9 L 268.3 240.6 L 310.0 250.0 L 351.7 268.8 L 393.3 278.1 L 435.0 287.5 L 476.7 296.9 L 518.3 306.2" stroke="blue" stroke-width="2" fill="none" clip-path="url(#prefigure-sol-1-2-wind-chill-__clipPath-1)"/>
    <g id="prefigure-sol-1-2-wind-chill-__group-1">
      <circle id="prefigure-sol-1-2-wind-chill-__circle-0-point_0" cx="60.0" cy="43.8" r="4" stroke="black" stroke-width="2" fill="red"/>
      <circle id="prefigure-sol-1-2-wind-chill-__circle-1-point_1" cx="101.7" cy="128.1" r="4" stroke="black" stroke-width="2" fill="red"/>
      <circle id="prefigure-sol-1-2-wind-chill-__circle-2-point_2" cx="143.3" cy="175.0" r="4" stroke="black" stroke-width="2" fill="red"/>
      <circle id="prefigure-sol-1-2-wind-chill-__circle-3-point_3" cx="185.0" cy="203.1" r="4" stroke="black" stroke-width="2" fill="red"/>
      <circle id="prefigure-sol-1-2-wind-chill-__circle-4-point_4" cx="226.7" cy="221.9" r="4" stroke="black" stroke-width="2" fill="red"/>
      <circle id="prefigure-sol-1-2-wind-chill-__circle-5-point_5" cx="268.3" cy="240.6" r="4" stroke="black" stroke-width="2" fill="red"/>
      <circle id="prefigure-sol-1-2-wind-chill-__circle-6-point_6" cx="310.0" cy="250.0" r="4" stroke="black" stroke-width="2" fill="red"/>
      <circle id="prefigure-sol-1-2-wind-chill-__circle-7-point_7" cx="351.7" cy="268.8" r="4" stroke="black" stroke-width="2" fill="red"/>
      <circle id="prefigure-sol-1-2-wind-chill-__circle-8-point_8" cx="393.3" cy="278.1" r="4" stroke="black" stroke-width="2" fill="red"/>
      <circle id="prefigure-sol-1-2-wind-chill-__circle-9-point_9" cx="435.0" cy="287.5" r="4" stroke="black" stroke-width="2" fill="red"/>
      <circle id="prefigure-sol-1-2-wind-chill-__circle-10-point_10" cx="476.7" cy="296.9" r="4" stroke="black" stroke-width="2" fill="red"/>
      <circle id="prefigure-sol-1-2-wind-chill-__circle-11-point_11" cx="518.3" cy="306.2" r="4" stroke="black" stroke-width="2" fill="red"/>
    </g>
  </g>
</svg>
