<svg xmlns="http://www.w3.org/2000/svg" xmlns:xlink="http://www.w3.org/1999/xlink" xmlns:inkscape="http://www.inkscape.org/namespaces/inkscape" version="1.1" width="378" height="274" viewBox="0 0 378 274">
<defs>
<path id="font_1_1" d="M.37399293 .6046295C.3829956 .64060977 .38598634 .6516113 .47999574 .6516113 .5099945 .6516113 .5179901 .6516113 .5179901 .6706085 .5179901 .6826172 .5069885 .6826172 .5019989 .6826172 .46899415 .6826172 .3869934 .6796112 .35398866 .6796112 .32398988 .6796112 .25099183 .6826172 .22099304 .6826172 .21398926 .6826172 .20199585 .6826172 .20199585 .6626129 .20199585 .6516113 .21099854 .6516113 .22999573 .6516113 .23199463 .6516113 .25099183 .6516113 .2679901 .6496124 .28599549 .6476135 .29499818 .64660647 .29499818 .6336212 .29499818 .6296234 .2939911 .62661746 .29100038 .614624L.15699768 .07795715C.14698792 .038986207 .14498902 .0309906 .06599426 .0309906 .04899597 .0309906 .038986207 .0309906 .038986207 .010986328 .038986207 0 .04798889 0 .06599426 0H.5289917C.5529938 0 .55400088 0 .55999758 .016998291L.6389923 .23286438C.6429901 .24386597 .6429901 .24586487 .6429901 .24685669 .6429901 .2508545 .6399994 .25785829 .6309967 .25785829 .621994 .25785829 .62098696 .2528534 .6139984 .23686219 .5799866 .14492798 .5359955 .0309906 .36299134 .0309906H.2689972C.25498963 .0309906 .25299073 .0309906 .24699402 .03199768 .23699951 .032989503 .23399353 .033996583 .23399353 .041992189 .23399353 .04498291 .23399353 .04698181 .23899842 .064971927L.37399293 .6046295Z"/>
<path id="font_1_2" d="M.375 .6136017C.3809967 .63760378 .38398744 .6476135 .40299989 .65060427 .4119873 .6516113 .44400025 .6516113 .46398927 .6516113 .5349884 .6516113 .6459961 .6516113 .6459961 .5525818 .6459961 .51856997 .6299896 .44955445 .59098818 .41055299 .5649872 .38453675 .5119934 .35253907 .42199708 .35253907H.30999757L.375 .6136017M.5189972 .33953858C.6199951 .3615265 .7389984 .43154908 .7389984 .5325775 .7389984 .61860659 .6489868 .6826172 .5179901 .6826172H.23298645C.21299744 .6826172 .20399475 .6826172 .20399475 .6626129 .20399475 .6516113 .21299744 .6516113 .23199463 .6516113 .23399353 .6516113 .25299073 .6516113 .269989 .6496124 .28799439 .6476135 .29699708 .64660647 .29699708 .63360598 .29699708 .62960818 .29599 .6266022 .29299928 .6145935L.15899658 .07752991C.14898682 .038528444 .14698792 .030532837 .067993167 .030532837 .049987794 .030532837 .040985109 .030532837 .040985109 .010528564 .040985109-.00047302247 .052993776-.00047302247 .054992677-.00047302247 .08299255-.00047302247 .15299988 .002532959 .18099976 .002532959 .20899964 .002532959 .27999879-.00047302247 .30799867-.00047302247 .31599427-.00047302247 .32798768-.00047302247 .32798768 .01953125 .32798768 .030532837 .31900025 .030532837 .2999878 .030532837 .2630005 .030532837 .23498535 .030532837 .23498535 .048538209 .23498535 .054534913 .23699951 .059524537 .23799134 .0655365L.3039856 .3305359H.4229889C.5139923 .3305359 .5319977 .27453614 .5319977 .23953247 .5319977 .22453308 .5239868 .19352722 .5179901 .17053223 .5109863 .14253235 .5019989 .105529788 .5019989 .08552551 .5019989-.022460938 .621994-.022460938 .6349945-.022460938 .7200012-.022460938 .7549896 .07853699 .7549896 .0925293 .7549896 .104537967 .74398806 .104537967 .7429962 .104537967 .73399356 .104537967 .7319946 .09753418 .7299957 .090530399 .7049866 .016525269 .6619873-.00047302247 .6389923-.00047302247 .60598757-.00047302247 .598999 .021530152 .598999 .060531618 .598999 .091537479 .6049957 .14253235 .60899356 .17453003 .61099246 .1885376 .61299136 .20753479 .61299136 .2215271 .61299136 .2985382 .54599 .3295288 .5189972 .33953858Z"/>
<path id="font_2_107" d="M.44898988 .17396546H.42399598C.4189911 .14398194 .4119873 .099990848 .4019928 .084991458 .394989 .07699585 .32899476 .07699585 .30699159 .07699585H.1269989L.23298645 .17996216C.3889923 .31803895 .44898988 .37210084 .44898988 .47216798 .44898988 .5860901 .35899354 .6660156 .23699951 .6660156 .12399292 .6660156 .049987794 .57411196 .049987794 .48516847 .049987794 .4291687 .099990848 .4291687 .102996829 .4291687 .11999512 .4291687 .15499878 .44117738 .15499878 .48217774 .15499878 .5081787 .13699341 .5341797 .101989749 .5341797 .09399414 .5341797 .09199524 .5341797 .08898926 .5331726 .11199951 .59806826 .1659851 .63500979 .22399903 .63500979 .31498719 .63500979 .35798646 .5541382 .35798646 .47216798 .35798646 .39196778 .30799867 .31297303 .25299073 .25097657L.06098938 .036987306C.049987794 .025985718 .049987794 .023986817 .049987794 0H.42099L.44898988 .17396546Z"/>
<path id="font_2_57" d="M.47099305 .16503906V.19602967H.37098695V.6507721C.37098695 .6707611 .37098695 .6767578 .35499574 .6767578 .34599305 .6767578 .34298707 .6767578 .33499146 .6647644L.027999878 .19602967V.16503906H.2939911V.07800293C.2939911 .041992189 .2919922 .0309906 .21798706 .0309906H.19699097V0C.23799134 .0029907227 .2899933 .0029907227 .33198548 .0029907227 .37399293 .0029907227 .4269867 .0029907227 .46798707 0V.0309906H.44699098C.37298585 .0309906 .37098695 .041992189 .37098695 .07800293V.16503906H.47099305M.2999878 .19602967H.055999757L.2999878 .56881716V.19602967Z"/>
<path id="font_2_101" d="M.45700074 .2036438C.45700074 .33070375 .36799623 .4267578 .25698854 .4267578 .18899536 .4267578 .1519928 .37573243 .13198853 .327713V.35173036C.13198853 .6047821 .2559967 .64100649 .30699159 .64100649 .33099366 .64100649 .37298585 .634964 .394989 .6007538 .37998963 .6007538 .33999635 .6007538 .33999635 .5557556 .33999635 .524765 .3639984 .5097656 .38598634 .5097656 .4019928 .5097656 .43199159 .51875308 .43199159 .5577545 .43199159 .6178589 .3880005 .6660156 .30499269 .6660156 .1769867 .6660156 .041992189 .5367584 .041992189 .31570436 .041992189 .048553468 .1579895-.022460938 .25099183-.022460938 .3619995-.022460938 .45700074 .07156372 .45700074 .2036438M.36698915 .20463562C.36698915 .15661621 .36698915 .10658264 .34999085 .0705719 .31999208 .010528564 .27398683 .0055389406 .25099183 .0055389406 .18798828 .0055389406 .1579895 .06556702 .1519928 .080566409 .13398743 .127594 .13398743 .2076416 .13398743 .22564698 .13398743 .30369569 .1659851 .40374757 .2559967 .40374757 .27198792 .40374757 .31799317 .40374757 .34899903 .34172059 .36698915 .30470277 .36698915 .2536621 .36698915 .20463562Z"/>
<path id="font_2_51" d="M.45700074 .16764832C.45700074 .20367432 .44599916 .24871826 .4079895 .29074098 .3889923 .31176759 .37298585 .32176209 .30899049 .36180116 .3809967 .39881898 .42999269 .4508667 .42999269 .51690676 .42999269 .6089783 .34098817 .6660156 .25 .6660156 .1499939 .6660156 .068984989 .5919647 .068984989 .49890138 .068984989 .48088075 .070999149 .43585206 .11299133 .38882447 .12399292 .3768158 .16099549 .35179139 .18598938 .33477784 .12799073 .30575563 .041992189 .24971009 .041992189 .15063477 .041992189 .044555665 .14399719-.022460938 .24899292-.022460938 .3619995-.022460938 .45700074 .060577394 .45700074 .16764832M.38598634 .51690676C.38598634 .45986939 .34700013 .41183473 .2869873 .3768158L.16299439 .4568634C.116989139 .4868927 .11299133 .5209198 .11299133 .53793337 .11299133 .5989685 .17799378 .64100649 .24899292 .64100649 .32199098 .64100649 .38598634 .588974 .38598634 .51690676M.40699769 .13162232C.40699769 .05757141 .33198548 .0055389406 .25 .0055389406 .1639862 .0055389406 .09199524 .06758118 .09199524 .15063477 .09199524 .2086792 .12399292 .2727356 .20899964 .31976319L.33198548 .24171448C.3600006 .22268677 .40699769 .19267273 .40699769 .13162232Z"/>
<path id="font_2_82" d="M.4189911 0V.0309906H.3869934C.29699708 .0309906 .2939911 .041992189 .2939911 .07902527V.64012148C.2939911 .6640167 .2939911 .6660156 .2709961 .6660156 .20899964 .60227969 .12098694 .60227969 .08898926 .60227969V.57128909C.10899353 .57128909 .16799927 .57128909 .21998596 .5972748V.07902527C.21998596 .042999269 .21699524 .0309906 .1269989 .0309906H.09498596V0C.12998963 .0029907227 .21699524 .0029907227 .25698854 .0029907227 .29699708 .0029907227 .38398744 .0029907227 .4189911 0Z"/>
<path id="font_2_121" d="M.45999146 .31976319C.45999146 .39982606 .45498658 .47988893 .41999818 .5539398 .37399293 .65000918 .2919922 .6660156 .25 .6660156 .18998719 .6660156 .116989139 .64001467 .07598877 .54693606 .04399109 .47789 .038986207 .39982606 .038986207 .31976319 .038986207 .24472046 .042999269 .15464783 .083999637 .07859802 .1269989-.0024719239 .19999695-.022460938 .24899292-.022460938 .30299378-.022460938 .3789978-.0014648438 .4229889 .09359741 .45498658 .16265869 .45999146 .2407074 .45999146 .31976319M.3769989 .3317871C.3769989 .25672914 .3769989 .18867493 .3659973 .12461853 .35099793 .029556275 .2939911-.00047302247 .24899292-.00047302247 .20999146-.00047302247 .15098572 .024551392 .1329956 .12062073 .12199402 .18066406 .12199402 .2727356 .12199402 .3317871 .12199402 .39582826 .12199402 .46188355 .12998963 .5159149 .14898682 .63500979 .22399903 .64401248 .24899292 .64401248 .28199769 .64401248 .34799195 .6259918 .36698915 .52693179 .3769989 .47088624 .3769989 .39482118 .3769989 .3317871Z"/>
</defs>
<path transform="matrix(1.00005,0,0,-1.00002,25.931595,258.06794)" stroke-width=".19925" stroke-linecap="butt" stroke-miterlimit="10" stroke-linejoin="miter" fill="none" stroke="#d9d9d9" d="M0 17.00824H317.47944"/>
<path transform="matrix(1.00005,0,0,-1.00002,25.931595,258.06794)" stroke-width=".19925" stroke-linecap="butt" stroke-miterlimit="10" stroke-linejoin="miter" fill="none" stroke="#d9d9d9" d="M0 34.0165H317.47944"/>
<path transform="matrix(1.00005,0,0,-1.00002,25.931595,258.06794)" stroke-width=".19925" stroke-linecap="butt" stroke-miterlimit="10" stroke-linejoin="miter" fill="none" stroke="#d9d9d9" d="M0 51.02477H317.47944"/>
<path transform="matrix(1.00005,0,0,-1.00002,25.931595,258.06794)" stroke-width=".19925" stroke-linecap="butt" stroke-miterlimit="10" stroke-linejoin="miter" fill="none" stroke="#d9d9d9" d="M0 68.03302H317.47944"/>
<path transform="matrix(1.00005,0,0,-1.00002,25.931595,258.06794)" stroke-width=".19925" stroke-linecap="butt" stroke-miterlimit="10" stroke-linejoin="miter" fill="none" stroke="#d9d9d9" d="M0 85.04128H317.47944"/>
<path transform="matrix(1.00005,0,0,-1.00002,25.931595,258.06794)" stroke-width=".19925" stroke-linecap="butt" stroke-miterlimit="10" stroke-linejoin="miter" fill="none" stroke="#d9d9d9" d="M0 102.04953H317.47944"/>
<path transform="matrix(1.00005,0,0,-1.00002,25.931595,258.06794)" stroke-width=".19925" stroke-linecap="butt" stroke-miterlimit="10" stroke-linejoin="miter" fill="none" stroke="#d9d9d9" d="M0 119.0578H317.47944"/>
<path transform="matrix(1.00005,0,0,-1.00002,25.931595,258.06794)" stroke-width=".19925" stroke-linecap="butt" stroke-miterlimit="10" stroke-linejoin="miter" fill="none" stroke="#d9d9d9" d="M0 136.06606H317.47944"/>
<path transform="matrix(1.00005,0,0,-1.00002,25.931595,258.06794)" stroke-width=".19925" stroke-linecap="butt" stroke-miterlimit="10" stroke-linejoin="miter" fill="none" stroke="#d9d9d9" d="M0 153.07433H317.47944"/>
<path transform="matrix(1.00005,0,0,-1.00002,25.931595,258.06794)" stroke-width=".19925" stroke-linecap="butt" stroke-miterlimit="10" stroke-linejoin="miter" fill="none" stroke="#d9d9d9" d="M0 170.08257H317.47944"/>
<path transform="matrix(1.00005,0,0,-1.00002,25.931595,258.06794)" stroke-width=".19925" stroke-linecap="butt" stroke-miterlimit="10" stroke-linejoin="miter" fill="none" stroke="#d9d9d9" d="M0 187.09084H317.47944"/>
<path transform="matrix(1.00005,0,0,-1.00002,25.931595,258.06794)" stroke-width=".19925" stroke-linecap="butt" stroke-miterlimit="10" stroke-linejoin="miter" fill="none" stroke="#d9d9d9" d="M0 204.09909H317.47944"/>
<path transform="matrix(1.00005,0,0,-1.00002,25.931595,258.06794)" stroke-width=".19925" stroke-linecap="butt" stroke-miterlimit="10" stroke-linejoin="miter" fill="none" stroke="#d9d9d9" d="M0 221.10736H317.47944"/>
<path transform="matrix(1.00005,0,0,-1.00002,25.931595,258.06794)" stroke-width=".19925" stroke-linecap="butt" stroke-miterlimit="10" stroke-linejoin="miter" fill="none" stroke="#d9d9d9" d="M0 238.1156H317.47944"/>
<path transform="matrix(1.00005,0,0,-1.00002,25.931595,258.06794)" stroke-width=".19925" stroke-linecap="butt" stroke-miterlimit="10" stroke-linejoin="miter" fill="none" stroke="#d9d9d9" d="M22.6771 0V238.1156"/>
<path transform="matrix(1.00005,0,0,-1.00002,25.931595,258.06794)" stroke-width=".19925" stroke-linecap="butt" stroke-miterlimit="10" stroke-linejoin="miter" fill="none" stroke="#d9d9d9" d="M45.35419 0V238.1156"/>
<path transform="matrix(1.00005,0,0,-1.00002,25.931595,258.06794)" stroke-width=".19925" stroke-linecap="butt" stroke-miterlimit="10" stroke-linejoin="miter" fill="none" stroke="#d9d9d9" d="M68.0313 0V238.1156"/>
<path transform="matrix(1.00005,0,0,-1.00002,25.931595,258.06794)" stroke-width=".19925" stroke-linecap="butt" stroke-miterlimit="10" stroke-linejoin="miter" fill="none" stroke="#d9d9d9" d="M90.70839 0V238.1156"/>
<path transform="matrix(1.00005,0,0,-1.00002,25.931595,258.06794)" stroke-width=".19925" stroke-linecap="butt" stroke-miterlimit="10" stroke-linejoin="miter" fill="none" stroke="#d9d9d9" d="M113.3855 0V238.1156"/>
<path transform="matrix(1.00005,0,0,-1.00002,25.931595,258.06794)" stroke-width=".19925" stroke-linecap="butt" stroke-miterlimit="10" stroke-linejoin="miter" fill="none" stroke="#d9d9d9" d="M136.06259 0V238.1156"/>
<path transform="matrix(1.00005,0,0,-1.00002,25.931595,258.06794)" stroke-width=".19925" stroke-linecap="butt" stroke-miterlimit="10" stroke-linejoin="miter" fill="none" stroke="#d9d9d9" d="M158.7397 0V238.1156"/>
<path transform="matrix(1.00005,0,0,-1.00002,25.931595,258.06794)" stroke-width=".19925" stroke-linecap="butt" stroke-miterlimit="10" stroke-linejoin="miter" fill="none" stroke="#d9d9d9" d="M181.4168 0V238.1156"/>
<path transform="matrix(1.00005,0,0,-1.00002,25.931595,258.06794)" stroke-width=".19925" stroke-linecap="butt" stroke-miterlimit="10" stroke-linejoin="miter" fill="none" stroke="#d9d9d9" d="M204.09389 0V238.1156"/>
<path transform="matrix(1.00005,0,0,-1.00002,25.931595,258.06794)" stroke-width=".19925" stroke-linecap="butt" stroke-miterlimit="10" stroke-linejoin="miter" fill="none" stroke="#d9d9d9" d="M226.77101 0V238.1156"/>
<path transform="matrix(1.00005,0,0,-1.00002,25.931595,258.06794)" stroke-width=".19925" stroke-linecap="butt" stroke-miterlimit="10" stroke-linejoin="miter" fill="none" stroke="#d9d9d9" d="M249.4481 0V238.1156"/>
<path transform="matrix(1.00005,0,0,-1.00002,25.931595,258.06794)" stroke-width=".19925" stroke-linecap="butt" stroke-miterlimit="10" stroke-linejoin="miter" fill="none" stroke="#d9d9d9" d="M272.1252 0V238.1156"/>
<path transform="matrix(1.00005,0,0,-1.00002,25.931595,258.06794)" stroke-width=".19925" stroke-linecap="butt" stroke-miterlimit="10" stroke-linejoin="miter" fill="none" stroke="#d9d9d9" d="M294.8023 0V238.1156"/>
<path transform="matrix(1.00005,0,0,-1.00002,25.931595,258.06794)" stroke-width=".19925" stroke-linecap="butt" stroke-miterlimit="10" stroke-linejoin="miter" fill="none" stroke="#d9d9d9" d="M317.47944 0V238.1156"/>
<path transform="matrix(1.00005,0,0,-1.00002,25.931595,258.06794)" stroke-width=".79701" stroke-linecap="butt" stroke-miterlimit="10" stroke-linejoin="miter" fill="none" stroke="#000000" d="M0 0H339.44914"/>
<path transform="matrix(1.00005,0,0,-1.00002,365.3977,258.06794)" stroke-width=".6376" stroke-linecap="round" stroke-linejoin="round" fill="none" stroke="#000000" d="M-1.55415 2.0722C-1.42464 1.29512 0 .1295 .38852 0 0-.1295-1.42464-1.29512-1.55415-2.0722"/>
<use data-text="L" xlink:href="#font_1_1" transform="matrix(9.963098,0,0,-9.962799,369.82478,261.472)"/>
<path transform="matrix(1.00005,0,0,-1.00002,25.931595,258.06794)" stroke-width=".79701" stroke-linecap="butt" stroke-miterlimit="10" stroke-linejoin="miter" fill="none" stroke="#000000" d="M0 0V245.91239"/>
<path transform="matrix(0,-1.00002,-1.00005,-0,25.931595,12.1506199)" stroke-width=".6376" stroke-linecap="round" stroke-linejoin="round" fill="none" stroke="#000000" d="M-1.55415 2.0722C-1.42464 1.29512 0 .1295 .38852 0 0-.1295-1.42464-1.29512-1.55415-2.0722"/>
<use data-text="R" xlink:href="#font_1_2" transform="matrix(9.963098,0,0,-9.962799,22.110405,7.7239077)"/>
<path transform="matrix(1.00005,0,0,-1.00002,25.931595,258.06794)" stroke-width=".3985" stroke-linecap="butt" stroke-miterlimit="10" stroke-linejoin="miter" fill="none" stroke="#000000" d="M22.6771 3.40158V-3.40158"/>
<use data-text="2" xlink:href="#font_2_107" transform="matrix(9.963098,0,0,-9.962799,46.118608,271.6252)"/>
<path transform="matrix(1.00005,0,0,-1.00002,25.931595,258.06794)" stroke-width=".3985" stroke-linecap="butt" stroke-miterlimit="10" stroke-linejoin="miter" fill="none" stroke="#000000" d="M45.35419 3.40158V-3.40158"/>
<use data-text="4" xlink:href="#font_2_57" transform="matrix(9.963098,0,0,-9.962799,68.79773,271.7342)"/>
<path transform="matrix(1.00005,0,0,-1.00002,25.931595,258.06794)" stroke-width=".3985" stroke-linecap="butt" stroke-miterlimit="10" stroke-linejoin="miter" fill="none" stroke="#000000" d="M68.0313 3.40158V-3.40158"/>
<use data-text="6" xlink:href="#font_2_101" transform="matrix(9.963098,0,0,-9.962799,91.47587,271.6252)"/>
<path transform="matrix(1.00005,0,0,-1.00002,25.931595,258.06794)" stroke-width=".3985" stroke-linecap="butt" stroke-miterlimit="10" stroke-linejoin="miter" fill="none" stroke="#000000" d="M90.70839 3.40158V-3.40158"/>
<use data-text="8" xlink:href="#font_2_51" transform="matrix(9.963098,0,0,-9.962799,114.15401,271.6252)"/>
<path transform="matrix(1.00005,0,0,-1.00002,25.931595,258.06794)" stroke-width=".3985" stroke-linecap="butt" stroke-miterlimit="10" stroke-linejoin="miter" fill="none" stroke="#000000" d="M113.3855 3.40158V-3.40158"/>
<use data-text="1" xlink:href="#font_2_82" transform="matrix(9.963098,0,0,-9.962799,134.341,271.6252)"/>
<use data-text="0" xlink:href="#font_2_121" transform="matrix(9.963098,0,0,-9.962799,139.32256,271.6252)"/>
<path transform="matrix(1.00005,0,0,-1.00002,25.931595,258.06794)" stroke-width=".3985" stroke-linecap="butt" stroke-miterlimit="10" stroke-linejoin="miter" fill="none" stroke="#000000" d="M136.06259 3.40158V-3.40158"/>
<use data-text="1" xlink:href="#font_2_82" transform="matrix(9.963098,0,0,-9.962799,157.01914,271.6252)"/>
<use data-text="2" xlink:href="#font_2_107" transform="matrix(9.963098,0,0,-9.962799,162.00067,271.6252)"/>
<path transform="matrix(1.00005,0,0,-1.00002,25.931595,258.06794)" stroke-width=".3985" stroke-linecap="butt" stroke-miterlimit="10" stroke-linejoin="miter" fill="none" stroke="#000000" d="M158.7397 3.40158V-3.40158"/>
<use data-text="1" xlink:href="#font_2_82" transform="matrix(9.963098,0,0,-9.962799,179.69727,271.7342)"/>
<use data-text="4" xlink:href="#font_2_57" transform="matrix(9.963098,0,0,-9.962799,184.6788,271.7342)"/>
<path transform="matrix(1.00005,0,0,-1.00002,25.931595,258.06794)" stroke-width=".3985" stroke-linecap="butt" stroke-miterlimit="10" stroke-linejoin="miter" fill="none" stroke="#000000" d="M181.4168 3.40158V-3.40158"/>
<use data-text="1" xlink:href="#font_2_82" transform="matrix(9.963098,0,0,-9.962799,202.37541,271.6252)"/>
<use data-text="6" xlink:href="#font_2_101" transform="matrix(9.963098,0,0,-9.962799,207.35697,271.6252)"/>
<path transform="matrix(1.00005,0,0,-1.00002,25.931595,258.06794)" stroke-width=".3985" stroke-linecap="butt" stroke-miterlimit="10" stroke-linejoin="miter" fill="none" stroke="#000000" d="M204.09389 3.40158V-3.40158"/>
<use data-text="1" xlink:href="#font_2_82" transform="matrix(9.963098,0,0,-9.962799,225.05455,271.6252)"/>
<use data-text="8" xlink:href="#font_2_51" transform="matrix(9.963098,0,0,-9.962799,230.0361,271.6252)"/>
<path transform="matrix(1.00005,0,0,-1.00002,25.931595,258.06794)" stroke-width=".3985" stroke-linecap="butt" stroke-miterlimit="10" stroke-linejoin="miter" fill="none" stroke="#000000" d="M226.77101 3.40158V-3.40158"/>
<use data-text="2" xlink:href="#font_2_107" transform="matrix(9.963098,0,0,-9.962799,247.73267,271.6252)"/>
<use data-text="0" xlink:href="#font_2_121" transform="matrix(9.963098,0,0,-9.962799,252.7142,271.6252)"/>
<path transform="matrix(1.00005,0,0,-1.00002,25.931595,258.06794)" stroke-width=".3985" stroke-linecap="butt" stroke-miterlimit="10" stroke-linejoin="miter" fill="none" stroke="#000000" d="M249.4481 3.40158V-3.40158"/>
<use data-text="2" xlink:href="#font_2_107" transform="matrix(9.963098,0,0,-9.962799,270.4108,271.6252)"/>
<use data-text="2" xlink:href="#font_2_107" transform="matrix(9.963098,0,0,-9.962799,275.39234,271.6252)"/>
<path transform="matrix(1.00005,0,0,-1.00002,25.931595,258.06794)" stroke-width=".3985" stroke-linecap="butt" stroke-miterlimit="10" stroke-linejoin="miter" fill="none" stroke="#000000" d="M272.1252 3.40158V-3.40158"/>
<use data-text="2" xlink:href="#font_2_107" transform="matrix(9.963098,0,0,-9.962799,293.08894,271.7342)"/>
<use data-text="4" xlink:href="#font_2_57" transform="matrix(9.963098,0,0,-9.962799,298.0705,271.7342)"/>
<path transform="matrix(1.00005,0,0,-1.00002,25.931595,258.06794)" stroke-width=".3985" stroke-linecap="butt" stroke-miterlimit="10" stroke-linejoin="miter" fill="none" stroke="#000000" d="M294.8023 3.40158V-3.40158"/>
<use data-text="2" xlink:href="#font_2_107" transform="matrix(9.963098,0,0,-9.962799,315.7671,271.6252)"/>
<use data-text="6" xlink:href="#font_2_101" transform="matrix(9.963098,0,0,-9.962799,320.74864,271.6252)"/>
<path transform="matrix(1.00005,0,0,-1.00002,25.931595,258.06794)" stroke-width=".3985" stroke-linecap="butt" stroke-miterlimit="10" stroke-linejoin="miter" fill="none" stroke="#000000" d="M317.47944 3.40158V-3.40158"/>
<use data-text="2" xlink:href="#font_2_107" transform="matrix(9.963098,0,0,-9.962799,338.4452,271.6252)"/>
<use data-text="8" xlink:href="#font_2_51" transform="matrix(9.963098,0,0,-9.962799,343.42674,271.6252)"/>
<path transform="matrix(1.00005,0,0,-1.00002,25.931595,258.06794)" stroke-width=".3985" stroke-linecap="butt" stroke-miterlimit="10" stroke-linejoin="miter" fill="none" stroke="#000000" d="M2.26765 34.0165H-2.26765"/>
<use data-text="2" xlink:href="#font_2_107" transform="matrix(9.963098,0,0,-9.962799,5.1985628,227.25931)"/>
<use data-text="0" xlink:href="#font_2_121" transform="matrix(9.963098,0,0,-9.962799,10.180107,227.25931)"/>
<use data-text="0" xlink:href="#font_2_121" transform="matrix(9.963098,0,0,-9.962799,15.161659,227.25931)"/>
<path transform="matrix(1.00005,0,0,-1.00002,25.931595,258.06794)" stroke-width=".3985" stroke-linecap="butt" stroke-miterlimit="10" stroke-linejoin="miter" fill="none" stroke="#000000" d="M2.26765 68.03302H-2.26765"/>
<use data-text="4" xlink:href="#font_2_57" transform="matrix(9.963098,0,0,-9.962799,5.1985628,193.29663)"/>
<use data-text="0" xlink:href="#font_2_121" transform="matrix(9.963098,0,0,-9.962799,10.180107,193.29663)"/>
<use data-text="0" xlink:href="#font_2_121" transform="matrix(9.963098,0,0,-9.962799,15.161659,193.29663)"/>
<path transform="matrix(1.00005,0,0,-1.00002,25.931595,258.06794)" stroke-width=".3985" stroke-linecap="butt" stroke-miterlimit="10" stroke-linejoin="miter" fill="none" stroke="#000000" d="M2.26765 102.04953H-2.26765"/>
<use data-text="6" xlink:href="#font_2_101" transform="matrix(9.963098,0,0,-9.962799,5.1985628,159.22495)"/>
<use data-text="0" xlink:href="#font_2_121" transform="matrix(9.963098,0,0,-9.962799,10.180107,159.22495)"/>
<use data-text="0" xlink:href="#font_2_121" transform="matrix(9.963098,0,0,-9.962799,15.161659,159.22495)"/>
<path transform="matrix(1.00005,0,0,-1.00002,25.931595,258.06794)" stroke-width=".3985" stroke-linecap="butt" stroke-miterlimit="10" stroke-linejoin="miter" fill="none" stroke="#000000" d="M2.26765 136.06606H-2.26765"/>
<use data-text="8" xlink:href="#font_2_51" transform="matrix(9.963098,0,0,-9.962799,5.1985628,125.207279)"/>
<use data-text="0" xlink:href="#font_2_121" transform="matrix(9.963098,0,0,-9.962799,10.180107,125.207279)"/>
<use data-text="0" xlink:href="#font_2_121" transform="matrix(9.963098,0,0,-9.962799,15.161659,125.207279)"/>
<path transform="matrix(1.00005,0,0,-1.00002,25.931595,258.06794)" stroke-width=".3985" stroke-linecap="butt" stroke-miterlimit="10" stroke-linejoin="miter" fill="none" stroke="#000000" d="M2.26765 170.08257H-2.26765"/>
<use data-text="1" xlink:href="#font_2_82" transform="matrix(9.963098,0,0,-9.962799,.21731568,91.18959)"/>
<use data-text="0" xlink:href="#font_2_121" transform="matrix(9.963098,0,0,-9.962799,5.19886,91.18959)"/>
<use data-text="0" xlink:href="#font_2_121" transform="matrix(9.963098,0,0,-9.962799,10.180412,91.18959)"/>
<use data-text="0" xlink:href="#font_2_121" transform="matrix(9.963098,0,0,-9.962799,15.161964,91.18959)"/>
<path transform="matrix(1.00005,0,0,-1.00002,25.931595,258.06794)" stroke-width=".3985" stroke-linecap="butt" stroke-miterlimit="10" stroke-linejoin="miter" fill="none" stroke="#000000" d="M2.26765 204.09909H-2.26765"/>
<use data-text="1" xlink:href="#font_2_82" transform="matrix(9.963098,0,0,-9.962799,.21731568,57.172899)"/>
<use data-text="2" xlink:href="#font_2_107" transform="matrix(9.963098,0,0,-9.962799,5.19886,57.172899)"/>
<use data-text="0" xlink:href="#font_2_121" transform="matrix(9.963098,0,0,-9.962799,10.180412,57.172899)"/>
<use data-text="0" xlink:href="#font_2_121" transform="matrix(9.963098,0,0,-9.962799,15.161964,57.172899)"/>
<path transform="matrix(1.00005,0,0,-1.00002,25.931595,258.06794)" stroke-width=".3985" stroke-linecap="butt" stroke-miterlimit="10" stroke-linejoin="miter" fill="none" stroke="#000000" d="M2.26765 238.1156H-2.26765"/>
<use data-text="1" xlink:href="#font_2_82" transform="matrix(9.963098,0,0,-9.962799,.21731568,23.210236)"/>
<use data-text="4" xlink:href="#font_2_57" transform="matrix(9.963098,0,0,-9.962799,5.19886,23.210236)"/>
<use data-text="0" xlink:href="#font_2_121" transform="matrix(9.963098,0,0,-9.962799,10.180412,23.210236)"/>
<use data-text="0" xlink:href="#font_2_121" transform="matrix(9.963098,0,0,-9.962799,15.161964,23.210236)"/>
<path transform="matrix(1.00005,0,0,-1.00002,25.931595,258.06794)" stroke-width="1.19553" stroke-linecap="butt" stroke-miterlimit="10" stroke-linejoin="miter" fill="none" stroke="#0000ff" d="M0 153.07433H3.30695 6.6139 9.92087 13.22783 16.53479 19.84175 23.14871 26.45567 29.76263 33.0696 36.37656 39.68353 42.9905 46.29745 49.60442 52.91138 56.21834 59.5253 62.83226 66.13922 69.44618 72.75314 76.0601 79.36708"/>
<path transform="matrix(1.00005,0,0,-1.00002,25.931595,258.06794)" stroke-width="1.19553" stroke-linecap="butt" stroke-miterlimit="10" stroke-linejoin="miter" fill="none" stroke="#0000ff" d="M79.36984 153.07433 82.6768 153.57027 85.98376 154.06623 89.29073 154.56243 92.59769 155.05838 95.90465 155.55458 99.21161 156.05055 102.51857 156.5465 105.82553 157.04271 109.1325 157.53867 112.43947 158.03488 115.74643 158.53083 119.05338 159.0268 122.36034 159.523 125.66731 160.01895 128.97428 160.51515 132.28122 161.01111 135.58818 161.50708 138.89514 162.00328 142.20214 162.49924 145.50908 162.99546 148.81604 163.49141 152.123 163.98735 155.42996 164.48358 158.73693 164.97953"/>
<path transform="matrix(1.00005,0,0,-1.00002,25.931595,258.06794)" stroke-width="1.19553" stroke-linecap="butt" stroke-miterlimit="10" stroke-linejoin="miter" fill="none" stroke="#0000ff" d="M158.7397 164.98004 165.35379 167.46031 171.9679 169.94062 178.58199 172.4209 185.19609 174.90145 191.81018 177.38173 198.42427 179.862 205.03838 182.3423 211.65247 184.82283 218.26656 187.30313 224.88068 189.7834 231.49477 192.2637 238.10886 194.74423 244.72296 197.22452 251.33705 199.7048 257.95115 202.18509 264.56526 204.66562 271.17936 207.14592 277.79344 209.6262 284.40757 212.10648 291.02165 214.58704 297.63575 217.06732 304.24983 219.5476 310.86393 222.02788 317.478 224.50844"/>
<path transform="matrix(1.00005,0,0,-1.00002,25.931595,258.06794)" d="M81.48328 153.07433C81.48328 154.24155 80.53706 155.18776 79.36984 155.18776 78.20262 155.18776 77.2564 154.24155 77.2564 153.07433 77.2564 151.9071 78.20262 150.96088 79.36984 150.96088 80.53706 150.96088 81.48328 151.9071 81.48328 153.07433ZM79.36984 153.07433" fill="#0000ff"/>
<path transform="matrix(1.00005,0,0,-1.00002,25.931595,258.06794)" d="M160.85315 164.98004C160.85315 166.14727 159.90692 167.09348 158.7397 167.09348 157.57248 167.09348 156.62627 166.14727 156.62627 164.98004 156.62627 163.81282 157.57248 162.86661 158.7397 162.86661 159.90692 162.86661 160.85315 163.81282 160.85315 164.98004ZM158.7397 164.98004" fill="#0000ff"/>
</svg>
